<svg width="450" height="100" viewBox="0 0 450 100" fill="none" xmlns="http://www.w3.org/2000/svg">
<path d="M0.90625 75.5L17.75 29.6875H26.9688L43.5625 75.5H34.875L30.3438 62.5625H14.3125L9.75 75.5H0.90625ZM16.4375 56.25H28.1875C24.4375 44.2292 22.5104 38.0208 22.4062 37.625L16.4375 56.25ZM47.6875 75.5V41.1562H54.5625L55.625 46.4062C57.875 42.8021 61.1354 41 65.4062 41C66.3021 41 67.0312 41.0417 67.5938 41.125L67.4688 47.9688C66.6354 47.8438 65.7708 47.7812 64.875 47.7812C61.8542 47.7812 59.5938 48.5833 58.0938 50.1875C56.6146 51.7917 55.875 54.0208 55.875 56.875V75.5H47.6875ZM87.3125 76.1562C82.0625 76.1562 77.9688 74.5938 75.0312 71.4688C72.1146 68.3438 70.6562 63.875 70.6562 58.0625C70.6562 52.4375 72.1875 48.0729 75.25 44.9688C78.3333 41.8646 82.3854 40.3125 87.4062 40.3125C91.4271 40.3125 94.8229 41.1771 97.5938 42.9062L95.6562 48.75C92.8229 47.2708 90.1875 46.5312 87.75 46.5312C84.9792 46.5312 82.7917 47.5208 81.1875 49.5C79.6042 51.4792 78.8125 54.3646 78.8125 58.1562C78.8125 61.9896 79.5938 64.9062 81.1562 66.9062C82.7396 68.9062 84.9688 69.9062 87.8438 69.9062C90.8438 69.9062 93.7292 69.0208 96.5 67.25L97.2812 73.4688C95.8438 74.4271 94.3542 75.1146 92.8125 75.5312C91.2708 75.9479 89.4375 76.1562 87.3125 76.1562ZM103.781 75.5V28.5L111.969 27.9688V37.875C111.969 38.3542 111.938 39.6875 111.875 41.875C111.812 44.0417 111.781 45.1458 111.781 45.1875C114.51 41.9375 118.177 40.3125 122.781 40.3125C126.615 40.3125 129.583 41.4167 131.688 43.625C133.812 45.8125 134.875 49.1875 134.875 53.75V75.5H126.688V54.6562C126.688 51.8438 126.24 49.7812 125.344 48.4688C124.448 47.1562 122.927 46.5 120.781 46.5C118.948 46.5 117.323 46.9688 115.906 47.9062C114.49 48.8229 113.427 50.0104 112.719 51.4688C112.219 53.3854 111.969 55.8854 111.969 58.9688V75.5H103.781ZM160.469 75.5V29.5938H175.719C179.323 29.5938 182.406 30.0625 184.969 31C187.531 31.9167 189.552 33.4167 191.031 35.5C192.531 37.5833 193.281 40.1979 193.281 43.3438C193.281 45.5312 193 47.4792 192.438 49.1875C191.875 50.875 190.948 52.4167 189.656 53.8125C188.365 55.1875 186.542 56.25 184.188 57C181.854 57.75 179.031 58.125 175.719 58.125C172.885 58.125 170.583 58.0417 168.812 57.875V75.5H160.469ZM174.812 52C176.542 52 178.042 51.8333 179.312 51.5C180.604 51.1667 181.604 50.7396 182.312 50.2188C183.042 49.6979 183.615 49.0521 184.031 48.2812C184.469 47.5104 184.75 46.7708 184.875 46.0625C185.021 45.3333 185.094 44.5208 185.094 43.625C185.094 41.1042 184.281 39.1875 182.656 37.875C181.031 36.5625 178.74 35.9062 175.781 35.9062H168.812V51.9375C169.062 51.9792 171.062 52 174.812 52ZM210.875 75.9688C208.521 75.9688 206.562 75.6979 205 75.1562C203.458 74.5938 202.24 73.7083 201.344 72.5C200.448 71.2917 199.823 69.8542 199.469 68.1875C199.115 66.5208 198.938 64.4479 198.938 61.9688V28.5L207.125 27.9688V61.8125C207.125 64.8958 207.49 66.9896 208.219 68.0938C208.948 69.1771 210.365 69.7188 212.469 69.7188C213.51 69.7188 214.833 69.6042 216.438 69.375L216.656 75.2188C216.635 75.2188 216.375 75.2708 215.875 75.375C215.396 75.4792 214.927 75.5625 214.469 75.625C214.031 75.7083 213.469 75.7812 212.781 75.8438C212.094 75.9271 211.458 75.9688 210.875 75.9688ZM229.781 76.1562C226.594 76.1562 224.01 75.2812 222.031 73.5312C220.073 71.7604 219.094 69.2188 219.094 65.9062C219.094 62.3438 220.26 59.7083 222.594 58C224.927 56.2708 228.448 55.1771 233.156 54.7188C233.802 54.6354 234.5 54.5521 235.25 54.4688C236 54.3854 236.844 54.3021 237.781 54.2188C238.719 54.1354 239.458 54.0625 240 54V52.1875C240 50.1042 239.521 48.5938 238.562 47.6562C237.604 46.6979 236.146 46.2188 234.188 46.2188C231.396 46.2188 227.948 47 223.844 48.5625C223.823 48.5 223.479 47.5521 222.812 45.7188C222.146 43.8854 221.802 42.9479 221.781 42.9062C225.823 41.1771 230.198 40.3125 234.906 40.3125C239.531 40.3125 242.896 41.3229 245 43.3438C247.104 45.3438 248.156 48.5938 248.156 53.0938V75.5H242.094C242.073 75.4167 241.844 74.7188 241.406 73.4062C240.969 72.0938 240.75 71.3958 240.75 71.3125C239.042 72.9792 237.365 74.2083 235.719 75C234.094 75.7708 232.115 76.1562 229.781 76.1562ZM232 70.3438C233.896 70.3438 235.542 69.8958 236.938 69C238.354 68.0833 239.365 66.9792 239.969 65.6875V59.0625C239.906 59.0625 239.354 59.1042 238.312 59.1875C237.292 59.2708 236.74 59.3125 236.656 59.3125C233.344 59.6042 230.917 60.2292 229.375 61.1875C227.833 62.1458 227.062 63.6875 227.062 65.8125C227.062 67.2708 227.49 68.3958 228.344 69.1875C229.198 69.9583 230.417 70.3438 232 70.3438ZM256.406 75.5V41.1562H263L263.906 45.5C267.406 42.0417 271.292 40.3125 275.562 40.3125C279.562 40.3125 282.552 41.4688 284.531 43.7812C286.531 46.0729 287.531 49.4062 287.531 53.7812V75.5H279.312V54.7812C279.292 52.0104 278.844 49.9375 277.969 48.5625C277.094 47.1875 275.521 46.5 273.25 46.5C271.479 46.5 269.854 46.9583 268.375 47.875C266.917 48.7708 265.854 49.9062 265.188 51.2812C264.792 52.9062 264.594 55.4062 264.594 58.7812V75.5H256.406ZM306.562 76.125C301.5 76.125 297.448 75.2604 294.406 73.5312L295.25 67.375C296.625 68.125 298.375 68.8021 300.5 69.4062C302.625 69.9896 304.562 70.2812 306.312 70.2812C308.125 70.2812 309.531 69.9479 310.531 69.2812C311.552 68.5938 312.073 67.5938 312.094 66.2812C312.094 65.0938 311.615 64.1562 310.656 63.4688C309.719 62.7812 307.917 61.9271 305.25 60.9062C304.333 60.5729 303.74 60.3542 303.469 60.25C300.302 59.0208 298.021 57.6562 296.625 56.1562C295.229 54.6354 294.531 52.5833 294.531 50C294.531 46.875 295.656 44.4792 297.906 42.8125C300.177 41.1458 303.333 40.3125 307.375 40.3125C311.75 40.3125 315.594 41.1354 318.906 42.7812L316.875 48.4375C313.604 46.9167 310.49 46.1562 307.531 46.1562C305.885 46.1562 304.594 46.4375 303.656 47C302.74 47.5417 302.281 48.375 302.281 49.5C302.281 50.5625 302.729 51.3958 303.625 52C304.521 52.5833 306.271 53.3542 308.875 54.3125C308.958 54.3333 309.229 54.4271 309.688 54.5938C310.146 54.7604 310.5 54.8958 310.75 55C313.896 56.1458 316.208 57.5208 317.688 59.125C319.167 60.7083 319.906 62.7812 319.906 65.3438C319.885 68.7812 318.719 71.4375 316.406 73.3125C314.094 75.1875 310.812 76.125 306.562 76.125Z" fill="black"/>
<g clip-path="url(#clip0_1_30)">
<rect width="100" height="100" transform="translate(350)" fill="#089AEC"/>
<path d="M415.624 83.3054L415.269 82.9533L414.917 83.3083L412.56 85.6853L412.208 86.0403L412.563 86.3924L414.156 87.9727C410.479 90.3185 405.618 89.9021 402.385 86.696C400.542 84.8677 399.605 82.4925 399.578 80.1018L399.92 80.2833L400.339 80.5062L400.583 80.0985L402.995 76.0684L403.266 75.6166L402.801 75.3699L401.286 74.5665C401.606 74.106 401.971 73.666 402.381 73.2523C402.798 72.8321 403.242 72.4579 403.706 72.1298L404.521 73.6352L404.771 74.0983L405.221 73.8241L409.231 71.3785L409.636 71.1312L409.41 70.7135L409.227 70.3754C411.619 70.3817 414.001 71.2985 415.843 73.1258C419.071 76.3272 419.532 81.1754 417.215 84.883L415.624 83.3054ZM399.969 79.1773L399.63 78.9972C399.761 77.7616 400.136 76.5438 400.757 75.418L401.867 76.0066L399.969 79.1773ZM405.15 72.6962L404.554 71.5946C405.676 70.9649 406.89 70.5791 408.123 70.4373L408.305 70.7721L405.15 72.6962ZM416.633 85.7144C416.393 86.0228 416.131 86.3209 415.847 86.6066C415.57 86.8858 415.281 87.1446 414.982 87.383L413.622 86.0344L415.275 84.3675L416.633 85.7144ZM416.557 87.3108C416.84 87.0256 417.104 86.7292 417.348 86.4231L420.94 89.9852C421.388 90.4296 421.399 91.1529 420.919 91.6367C420.454 92.1057 419.75 92.1112 419.305 91.6705L415.696 88.0916C415.993 87.8498 416.281 87.5895 416.557 87.3108ZM399.873 74.9494C399.259 76.0686 398.863 77.2706 398.685 78.4955L382.638 69.9732L385.344 67.2445L399.873 74.9494ZM407.614 69.4971C406.391 69.6852 405.193 70.0913 404.078 70.715L396.25 56.2467L398.957 53.5179L407.614 69.4971ZM384.421 66.755L381.715 69.4833L379.113 68.1016L381.818 65.3746L384.421 66.755ZM371.723 75.5536L378.378 68.8433L380.98 70.225L373.726 77.5395C373.175 78.0946 372.266 78.0979 371.722 77.5578C371.177 77.0177 371.173 76.1086 371.723 75.5536ZM363.108 55.4527L380.895 64.8852L378.191 67.6117L361.324 58.6541L361.453 58.4223L362.919 55.7924L363.108 55.4527ZM354.845 51.8462L358.314 53.7887C358.074 53.9975 357.865 54.254 357.701 54.5564C357.518 54.8653 357.401 55.1956 357.344 55.5304L353.875 53.5705C353.874 53.57 353.873 53.5695 353.872 53.569C353.37 53.2756 353.221 52.7242 353.496 52.2544L353.5 52.2479L353.504 52.2414C353.784 51.7297 354.368 51.5691 354.837 51.8421L354.837 51.8421L354.845 51.8462ZM360.824 57.4962L358.306 56.0735C358.291 55.7329 358.374 55.3807 358.565 55.0592L358.571 55.0497L358.576 55.04C358.745 54.7266 358.992 54.4865 359.282 54.3306L361.802 55.7415L360.824 57.4962ZM398.459 52.5995L395.753 55.3278L394.351 52.7364L397.056 50.0093L398.459 52.5995ZM389.801 57.3248L393.616 53.4782L395.018 56.0696L391.803 59.3108L389.801 57.3248ZM385.973 54.9374L388.387 57.3307L386.362 59.3719L383.949 56.9786C383.383 56.417 383.385 55.5079 383.932 54.956C384.501 54.3823 385.41 54.3789 385.973 54.9374ZM382.553 64.6328L386.368 60.7861L388.371 62.7721L385.156 66.0132L382.553 64.6328ZM392.198 65.1595L389.785 62.7662L391.809 60.725L394.223 63.1183C394.786 63.6768 394.79 64.5859 394.221 65.1596C393.674 65.7115 392.765 65.7211 392.198 65.1595ZM389.097 58.0349L391.099 60.0208L389.075 62.062L387.072 60.0761L389.097 58.0349ZM387.46 32.2989L396.558 49.0909L393.854 51.8175L384.274 34.1097L384.612 33.9176L387.23 32.43L387.46 32.2989ZM382.315 24.8924L384.304 28.3455C383.969 28.4047 383.64 28.5252 383.333 28.7105C383.032 28.8772 382.777 29.0881 382.57 29.33L380.599 25.8767L380.599 25.8767L380.595 25.8696C380.318 25.4027 380.473 24.8168 380.983 24.5325L380.989 24.5289L380.996 24.5251C381.463 24.2456 382.016 24.3905 382.314 24.8899C382.314 24.8907 382.315 24.8915 382.315 24.8924ZM384.552 32.8016L383.12 30.2934C383.274 30.0019 383.512 29.753 383.824 29.5818L383.833 29.5764L383.843 29.5707C384.163 29.3762 384.514 29.291 384.855 29.3024L386.298 31.8091L384.552 32.8016ZM406.448 44.5433L399.195 51.8579L397.791 49.2677L404.446 42.5574C404.996 42.0023 405.905 41.9989 406.45 42.5391C406.995 43.0792 406.999 43.9883 406.448 44.5433ZM413.448 75.5413C410.962 73.076 407.247 73.1317 404.774 75.6252C402.319 78.101 402.296 81.8162 404.781 84.2805C407.264 86.7426 410.997 86.7118 413.455 84.2338C415.93 81.7381 415.931 78.0045 413.448 75.5413Z" fill="white" stroke="white"/>
<path d="M389.518 16.119L436.726 16.1979L436.805 63.4059L389.518 16.119Z" stroke="white" stroke-width="8"/>
</g>
<defs>
<clipPath id="clip0_1_30">
<rect width="100" height="100" fill="white" transform="translate(350)"/>
</clipPath>
</defs>
</svg>
